<?xml version="1.0" encoding="UTF-8" standalone="no"?>
<!-- Created with Inkscape (http://www.inkscape.org/) -->

<svg
   version="1.1"
   id="svg2"
   width="1706.6667"
   height="1365.3333"
   viewBox="0 0 1706.6667 1365.3333"
   sodipodi:docname="LOGO-vecto-crop.ai"
   xmlns:inkscape="http://www.inkscape.org/namespaces/inkscape"
   xmlns:sodipodi="http://sodipodi.sourceforge.net/DTD/sodipodi-0.dtd"
   xmlns="http://www.w3.org/2000/svg"
   xmlns:svg="http://www.w3.org/2000/svg">
  <defs
     id="defs6">
    <clipPath
       clipPathUnits="userSpaceOnUse"
       id="clipPath16">
      <path
         d="m 575.587,492.187 h 129.827 v 40.294 H 575.587 Z"
         id="path14" />
    </clipPath>
  </defs>
  <sodipodi:namedview
     id="namedview4"
     pagecolor="#ffffff"
     bordercolor="#000000"
     borderopacity="0.25"
     inkscape:showpageshadow="2"
     inkscape:pageopacity="0.0"
     inkscape:pagecheckerboard="0"
     inkscape:deskcolor="#d1d1d1" />
  <g
     id="g8"
     inkscape:groupmode="layer"
     inkscape:label="LOGO-vecto-crop"
     transform="matrix(1.3333333,0,0,-1.3333333,0,1365.3333)">
    <g
       id="g10">
      <g
         id="g12"
         clip-path="url(#clipPath16)">
        <g
           id="g18"
           transform="translate(588.0548,500.3731)">
          <path
             d="m 0,0 h 1.908 c 3.186,0 4.698,1.656 4.698,4.032 0,2.376 -1.512,4.032 -4.698,4.032 H -1.944 V -5.256 H 0 Z m 0,6.282 h 1.908 c 2.214,0 2.754,-1.26 2.754,-2.25 0,-0.99 -0.54,-2.25 -2.754,-2.25 H 0 Z M 15.86,-5.256 v 1.782 H 11.234 V 8.064 H 9.29 v -13.32 z m 13.787,0 -5.058,13.32 h -1.746 l -5.058,-13.32 h 2.052 l 1.476,3.924 h 4.788 l 1.476,-3.924 z m -7.65,5.706 1.71,5.094 h 0.036 L 25.435,0.45 Z m 17.802,-5.706 v 1.782 h -5.976 l 5.742,9.756 v 1.782 h -7.65 V 6.282 h 5.472 l -5.778,-9.756 v -1.782 z m 13.815,0 -5.058,13.32 H 46.81 l -5.058,-13.32 h 2.052 l 1.476,3.924 h 4.788 l 1.476,-3.924 z m -7.65,5.706 1.71,5.094 H 47.71 L 49.402,0.45 Z"
             style="fill:#ee2922;fill-opacity:1;fill-rule:nonzero;stroke:none"
             id="path20" />
        </g>
        <g
           id="g22"
           transform="translate(588.0548,500.3731)">
          <path
             d="m 0,0 h 1.908 c 3.186,0 4.698,1.656 4.698,4.032 0,2.376 -1.512,4.032 -4.698,4.032 H -1.944 V -5.256 H 0 Z m 0,6.282 h 1.908 c 2.214,0 2.754,-1.26 2.754,-2.25 0,-0.99 -0.54,-2.25 -2.754,-2.25 H 0 Z M 15.86,-5.256 v 1.782 H 11.234 V 8.064 H 9.29 v -13.32 z m 13.787,0 -5.058,13.32 h -1.746 l -5.058,-13.32 h 2.052 l 1.476,3.924 h 4.788 l 1.476,-3.924 z m -7.65,5.706 1.71,5.094 h 0.036 L 25.435,0.45 Z m 17.802,-5.706 v 1.782 h -5.976 l 5.742,9.756 v 1.782 h -7.65 V 6.282 h 5.472 l -5.778,-9.756 v -1.782 z m 13.815,0 -5.058,13.32 H 46.81 l -5.058,-13.32 h 2.052 l 1.476,3.924 h 4.788 l 1.476,-3.924 z m -7.65,5.706 1.71,5.094 H 47.71 L 49.402,0.45 Z"
             style="fill:none;stroke:#ee2922;stroke-width:0.2;stroke-linecap:butt;stroke-linejoin:miter;stroke-miterlimit:4;stroke-dasharray:none;stroke-opacity:1"
             id="path24" />
        </g>
        <g
           id="g26"
           transform="translate(588.0548,516.1171)">
          <path
             d="M 0,0 V 5.76 H 4.788 V 7.542 H 0 v 3.996 H 4.788 V 13.32 H -1.944 V 0 Z m 21.505,6.624 c 0,3.798 -2.97,6.948 -6.931,6.948 -4.067,0 -6.929,-3.294 -6.929,-6.912 0,-3.654 2.951,-6.912 6.929,-6.912 3.961,0 6.931,3.24 6.931,6.876 M 19.561,6.606 c 0,-2.088 -1.549,-5.076 -4.987,-5.076 -3.42,0 -4.985,2.952 -4.985,5.13 0,2.124 1.548,5.13 4.985,5.13 3.313,0 4.987,-2.826 4.987,-5.184 M 35.649,0 V 13.32 H 33.705 V 3.186 H 33.669 L 27.189,13.32 H 25.065 V 0 h 1.944 v 10.296 h 0.036 L 33.633,0 Z m 4.156,0 h 4.248 c 1.872,0 3.672,0.414 5.202,1.926 0.99,0.972 1.674,2.898 1.674,4.698 0,1.296 -0.414,2.916 -1.368,4.248 -1.008,1.386 -2.664,2.448 -5.436,2.448 h -4.32 z m 1.944,11.538 h 2.358 c 3.636,0 4.878,-2.898 4.878,-4.914 0,-3.672 -2.574,-4.842 -4.914,-4.842 H 41.749 Z M 64.647,0 59.589,13.32 H 57.843 L 52.785,0 h 2.052 l 1.476,3.924 h 4.788 L 62.577,0 Z m -7.65,5.706 1.71,5.094 h 0.036 L 60.435,5.706 Z M 70.16,0 v 11.538 h 2.556 V 13.32 H 65.66 v -1.782 h 2.556 V 0 Z m 7.365,13.32 H 75.581 V 0 h 1.944 z M 94.658,6.624 c 0,3.798 -2.97,6.948 -6.931,6.948 -4.067,0 -6.929,-3.294 -6.929,-6.912 0,-3.654 2.951,-6.912 6.929,-6.912 3.961,0 6.931,3.24 6.931,6.876 M 92.714,6.606 c 0,-2.088 -1.549,-5.076 -4.987,-5.076 -3.42,0 -4.985,2.952 -4.985,5.13 0,2.124 1.548,5.13 4.985,5.13 3.313,0 4.987,-2.826 4.987,-5.184 M 108.388,0 v 13.32 h -1.944 V 3.186 h -0.036 L 99.928,13.32 H 97.804 V 0 h 1.944 v 10.296 h 0.036 L 106.372,0 Z"
             style="fill:#ee2922;fill-opacity:1;fill-rule:nonzero;stroke:none"
             id="path28" />
        </g>
        <g
           id="g30"
           transform="translate(588.0548,516.1171)">
          <path
             d="M 0,0 V 5.76 H 4.788 V 7.542 H 0 v 3.996 H 4.788 V 13.32 H -1.944 V 0 Z m 21.505,6.624 c 0,3.798 -2.97,6.948 -6.931,6.948 -4.067,0 -6.929,-3.294 -6.929,-6.912 0,-3.654 2.951,-6.912 6.929,-6.912 3.961,0 6.931,3.24 6.931,6.876 z M 19.561,6.606 c 0,-2.088 -1.549,-5.076 -4.987,-5.076 -3.42,0 -4.985,2.952 -4.985,5.13 0,2.124 1.548,5.13 4.985,5.13 3.313,0 4.987,-2.826 4.987,-5.184 z M 35.649,0 V 13.32 H 33.705 V 3.186 H 33.669 L 27.189,13.32 H 25.065 V 0 h 1.944 v 10.296 h 0.036 L 33.633,0 Z m 4.156,0 h 4.248 c 1.872,0 3.672,0.414 5.202,1.926 0.99,0.972 1.674,2.898 1.674,4.698 0,1.296 -0.414,2.916 -1.368,4.248 -1.008,1.386 -2.664,2.448 -5.436,2.448 h -4.32 z m 1.944,11.538 h 2.358 c 3.636,0 4.878,-2.898 4.878,-4.914 0,-3.672 -2.574,-4.842 -4.914,-4.842 H 41.749 Z M 64.647,0 59.589,13.32 H 57.843 L 52.785,0 h 2.052 l 1.476,3.924 h 4.788 L 62.577,0 Z m -7.65,5.706 1.71,5.094 h 0.036 L 60.435,5.706 Z M 70.16,0 v 11.538 h 2.556 V 13.32 H 65.66 v -1.782 h 2.556 V 0 Z m 7.365,13.32 H 75.581 V 0 h 1.944 z M 94.658,6.624 c 0,3.798 -2.97,6.948 -6.931,6.948 -4.067,0 -6.929,-3.294 -6.929,-6.912 0,-3.654 2.951,-6.912 6.929,-6.912 3.961,0 6.931,3.24 6.931,6.876 z M 92.714,6.606 c 0,-2.088 -1.549,-5.076 -4.987,-5.076 -3.42,0 -4.985,2.952 -4.985,5.13 0,2.124 1.548,5.13 4.985,5.13 3.313,0 4.987,-2.826 4.987,-5.184 z M 108.388,0 v 13.32 h -1.944 V 3.186 h -0.036 L 99.928,13.32 H 97.804 V 0 h 1.944 v 10.296 h 0.036 L 106.372,0 Z"
             style="fill:none;stroke:#ee2922;stroke-width:0.2;stroke-linecap:butt;stroke-linejoin:miter;stroke-miterlimit:4;stroke-dasharray:none;stroke-opacity:1"
             id="path32" />
        </g>
        <g
           id="g34"
           transform="translate(575.5865,529.7079)">
          <path
             d="M 0,0 H 129.827"
             style="fill:none;stroke:#ee2922;stroke-width:0.5;stroke-linecap:butt;stroke-linejoin:miter;stroke-miterlimit:4;stroke-dasharray:none;stroke-opacity:1"
             id="path36" />
        </g>
        <g
           id="g38"
           transform="translate(575.5865,508.6181)">
          <path
             d="M 0,0 H 129.827"
             style="fill:none;stroke:#ee2922;stroke-width:0.5;stroke-linecap:butt;stroke-linejoin:miter;stroke-miterlimit:4;stroke-dasharray:none;stroke-opacity:1"
             id="path40" />
        </g>
        <g
           id="g42"
           transform="translate(575.5865,515.9033)">
          <path
             d="M 0,0 H 129.827"
             style="fill:none;stroke:#ee2922;stroke-width:0.5;stroke-linecap:butt;stroke-linejoin:miter;stroke-miterlimit:4;stroke-dasharray:none;stroke-opacity:1"
             id="path44" />
        </g>
        <g
           id="g46"
           transform="translate(575.5865,494.7851)">
          <path
             d="M 0,0 H 129.827"
             style="fill:none;stroke:#ee2922;stroke-width:0.5;stroke-linecap:butt;stroke-linejoin:miter;stroke-miterlimit:4;stroke-dasharray:none;stroke-opacity:1"
             id="path48" />
        </g>
        <g
           id="g50"
           transform="translate(627.994,492.1863)">
          <path
             d="M 0,0 V 40.294"
             style="fill:none;stroke:#ee2922;stroke-width:0.5;stroke-linecap:butt;stroke-linejoin:miter;stroke-miterlimit:4;stroke-dasharray:none;stroke-opacity:1"
             id="path52" />
        </g>
        <g
           id="g54"
           transform="translate(685.7641,492.1863)">
          <path
             d="M 0,0 V 40.294"
             style="fill:none;stroke:#ee2922;stroke-width:0.5;stroke-linecap:butt;stroke-linejoin:miter;stroke-miterlimit:4;stroke-dasharray:none;stroke-opacity:1"
             id="path56" />
        </g>
      </g>
    </g>
  </g>
</svg>
