<svg width="290" height="91" viewBox="0 0 290 91" fill="none" xmlns="http://www.w3.org/2000/svg">
<g clip-path="url(#clip0_1_2)">
<path d="M27.848 71.7156H32.1097C39.2259 71.7156 42.6031 68.0168 42.6031 62.7098C42.6031 57.4028 39.2259 53.704 32.1097 53.704H23.5059V83.4554H27.848V71.7156ZM27.848 57.6843H32.1097C37.0548 57.6843 38.261 60.4986 38.261 62.7098C38.261 64.9211 37.0548 67.7354 32.1097 67.7354H27.848V57.6843ZM63.2726 83.4554V79.4751H52.9401V53.704H48.598V83.4554H63.2726ZM94.067 83.4554L82.7696 53.704H78.8697L67.5723 83.4554H72.1556L75.4524 74.6908H86.1467L89.4435 83.4554H94.067ZM76.9801 70.7105L80.7996 59.3327H80.88L84.6592 70.7105H76.9801ZM116.742 83.4554V79.4751H103.394L116.22 57.6843V53.704H99.1328V57.6843H111.355L98.4493 79.4751V83.4554H116.742ZM147.599 83.4554L136.302 53.704H132.402L121.105 83.4554H125.688L128.985 74.6908H139.679L142.976 83.4554H147.599ZM130.512 70.7105L134.332 59.3327H134.412L138.191 70.7105H130.512Z" fill="#D72D1E"/>
<path d="M27.848 71.7156H32.1097C39.2259 71.7156 42.6031 68.0168 42.6031 62.7098C42.6031 57.4028 39.2259 53.704 32.1097 53.704H23.5059V83.4554H27.848V71.7156ZM27.848 57.6843H32.1097C37.0548 57.6843 38.261 60.4986 38.261 62.7098C38.261 64.9211 37.0548 67.7354 32.1097 67.7354H27.848V57.6843ZM63.2726 83.4554V79.4751H52.9401V53.704H48.598V83.4554H63.2726ZM94.067 83.4554L82.7696 53.704H78.8697L67.5723 83.4554H72.1556L75.4524 74.6908H86.1467L89.4435 83.4554H94.067ZM76.9801 70.7105L80.7996 59.3327H80.88L84.6592 70.7105H76.9801ZM116.742 83.4554V79.4751H103.394L116.22 57.6843V53.704H99.1328V57.6843H111.355L98.4493 79.4751V83.4554H116.742ZM147.599 83.4554L136.302 53.704H132.402L121.105 83.4554H125.688L128.985 74.6908H139.679L142.976 83.4554H147.599ZM130.512 70.7105L134.332 59.3327H134.412L138.191 70.7105H130.512Z" stroke="#D72D1E" stroke-width="0.266667"/>
<path d="M27.848 36.5501V23.6846H38.5424V19.7044H27.848V10.779H38.5424V6.79876H23.5059V36.5501H27.848ZM75.8812 21.7548C75.8812 13.2717 69.2475 6.2359 60.4002 6.2359C51.3163 6.2359 44.9237 13.5933 44.9237 21.6744C44.9237 28.7548 49.8844 35.1695 57 36.7447C59.2449 36.6988 61.7627 36.7157 64 36.6987C70.9871 35.0535 75.8812 28.7304 75.8812 21.7548ZM71.5391 21.795C71.5391 26.4588 68.0793 33.1327 60.4002 33.1327C52.7614 33.1327 49.2658 26.5392 49.2658 21.6744C49.2658 16.9303 52.7234 10.2161 60.4002 10.2161C67.8001 10.2161 71.5391 16.5282 71.5391 21.795ZM107.473 36.5501V6.79876H103.131V29.4339H103.05L88.5769 6.79876H83.8328V36.5501H88.1748V13.5531H88.2552L102.97 36.5501H107.473ZM116.756 36.5501H126.244C130.425 36.5501 134.446 35.6254 137.863 32.2482C140.074 30.0772 141.602 25.7753 141.602 21.7548C141.602 18.8601 140.677 15.2417 138.547 12.2666C136.295 9.17083 132.596 6.79876 126.405 6.79876H116.756V36.5501ZM121.098 10.779H126.365C134.486 10.779 137.26 17.2519 137.26 21.7548C137.26 29.9565 131.511 32.5698 126.284 32.5698H121.098V10.779ZM172.242 36.5501L160.945 6.79876H157.045L145.748 36.5501H150.331L153.628 27.7855H164.322L167.619 36.5501H172.242ZM155.156 23.8053L158.975 12.4274H159.055L162.835 23.8053H155.156ZM184.556 36.5501V10.779H190.265V6.79876H174.505V10.779H180.214V36.5501H184.556ZM201.007 6.79876H196.664V36.5501H201.007V6.79876ZM239.274 21.7548C239.274 13.2717 232.641 6.2359 223.794 6.2359C214.71 6.2359 208.317 13.5933 208.317 21.6744C208.317 29.8359 214.908 37.1129 223.794 37.1129C232.641 37.1129 239.274 29.8761 239.274 21.7548ZM234.932 21.795C234.932 26.4588 231.473 33.1327 223.794 33.1327C216.155 33.1327 212.659 26.5392 212.659 21.6744C212.659 16.9303 216.117 10.2161 223.794 10.2161C231.193 10.2161 234.932 16.5282 234.932 21.795ZM269.942 36.5501V6.79876H265.599V29.4339H265.519L251.045 6.79876H246.301V36.5501H250.643V13.5531H250.724L265.439 36.5501H269.942Z" fill="#D72D1E"/>
<path d="M27.848 36.5501V23.6846H38.5424V19.7044H27.848V10.779H38.5424V6.79876H23.5059V36.5501H27.848ZM75.8812 21.7548C75.8812 13.2717 69.2475 6.2359 60.4002 6.2359C51.3163 6.2359 44.9237 13.5933 44.9237 21.6744C44.9237 28.7548 49.8844 35.1695 57 36.7447C59.2449 36.7368 61.7626 36.7294 64 36.6987C70.9871 35.0535 75.8812 28.7304 75.8812 21.7548ZM71.5391 21.795C71.5391 26.4588 68.0793 33.1327 60.4002 33.1327C52.7614 33.1327 49.2658 26.5392 49.2658 21.6744C49.2658 16.9303 52.7234 10.2161 60.4002 10.2161C67.8001 10.2161 71.5391 16.5282 71.5391 21.795ZM107.473 36.5501V6.79876H103.131V29.4339H103.05L88.5769 6.79876H83.8328V36.5501H88.1748V13.5531H88.2552L102.97 36.5501H107.473ZM116.756 36.5501H126.244C130.425 36.5501 134.446 35.6254 137.863 32.2482C140.074 30.0772 141.602 25.7753 141.602 21.7548C141.602 18.8601 140.677 15.2417 138.547 12.2666C136.295 9.17083 132.596 6.79876 126.405 6.79876H116.756V36.5501ZM121.098 10.779H126.365C134.486 10.779 137.26 17.2519 137.26 21.7548C137.26 29.9565 131.511 32.5698 126.284 32.5698H121.098V10.779ZM172.242 36.5501L160.945 6.79876H157.045L145.748 36.5501H150.331L153.628 27.7855H164.322L167.619 36.5501H172.242ZM155.156 23.8053L158.975 12.4274H159.055L162.835 23.8053H155.156ZM184.556 36.5501V10.779H190.265V6.79876H174.505V10.779H180.214V36.5501H184.556ZM201.007 6.79876H196.664V36.5501H201.007V6.79876ZM239.274 21.7548C239.274 13.2717 232.641 6.2359 223.794 6.2359C214.71 6.2359 208.317 13.5933 208.317 21.6744C208.317 29.8359 214.908 37.1129 223.794 37.1129C232.641 37.1129 239.274 29.8761 239.274 21.7548ZM234.932 21.795C234.932 26.4588 231.473 33.1327 223.794 33.1327C216.155 33.1327 212.659 26.5392 212.659 21.6744C212.659 16.9303 216.117 10.2161 223.794 10.2161C231.193 10.2161 234.932 16.5282 234.932 21.795ZM269.942 36.5501V6.79876H265.599V29.4339H265.519L251.045 6.79876H246.301V36.5501H250.643V13.5531H250.724L265.439 36.5501H269.942Z" stroke="#D72D1E" stroke-width="0.266667"/>
<path d="M-0.00109863 6.49997H289.978" stroke="#D72D1E"/>
<path d="M-0.00109863 53.5H289.978" stroke="#D72D1E"/>
<path d="M-0.00109863 36.5H289.978" stroke="#D72D1E"/>
<path d="M-0.00109863 83.5H289.978" stroke="#D72D1E"/>
<path d="M116.5 90.0015V0.00151443" stroke="#D72D1E"/>
<path d="M246.5 90.0015V0.00151443" stroke="#D72D1E"/>
</g>
<defs>
<clipPath id="clip0_1_2">
<rect width="290" height="91" fill="white"/>
</clipPath>
</defs>
</svg>
