<svg width="145" height="45" viewBox="0 0 145 45" fill="none" xmlns="http://www.w3.org/2000/svg">
<path d="M13.9244 35.8571H16.0554C19.6138 35.8571 21.3025 34.0077 21.3025 31.3542C21.3025 28.7007 19.6138 26.8513 16.0554 26.8513H11.7532V41.7269H13.9244V35.8571ZM13.9244 28.8414H16.0554C18.5282 28.8414 19.1313 30.2485 19.1313 31.3542C19.1313 32.4598 18.5282 33.8669 16.0554 33.8669H13.9244V28.8414ZM31.638 41.7269V39.7368H26.4714V26.8513H24.3002V41.7269H31.638ZM47.0363 41.7269L41.3872 26.8513H39.4371L33.788 41.7269H36.0798L37.7283 37.3446H43.0759L44.7244 41.7269H47.0363ZM38.4923 35.3545L40.4021 29.6656H40.4423L42.3321 35.3545H38.4923ZM58.3748 41.7269V39.7368H51.7004L58.1134 28.8414V26.8513H49.5694V28.8414H55.6809L49.2276 39.7368V41.7269H58.3748ZM73.8044 41.7269L68.1552 26.8513H66.2052L60.556 41.7269H62.8479L64.4964 37.3446H69.8439L71.4924 41.7269H73.8044ZM65.2603 35.3545L67.1701 29.6656H67.2104L69.1001 35.3545H65.2603Z" fill="#EE2922"/>
<path d="M13.9244 35.8571H16.0554C19.6138 35.8571 21.3025 34.0077 21.3025 31.3542C21.3025 28.7007 19.6138 26.8513 16.0554 26.8513H11.7532V41.7269H13.9244V35.8571ZM13.9244 28.8414H16.0554C18.5282 28.8414 19.1313 30.2485 19.1313 31.3542C19.1313 32.4598 18.5282 33.8669 16.0554 33.8669H13.9244V28.8414ZM31.638 41.7269V39.7368H26.4714V26.8513H24.3002V41.7269H31.638ZM47.0363 41.7269L41.3872 26.8513H39.4371L33.788 41.7269H36.0798L37.7283 37.3446H43.0759L44.7244 41.7269H47.0363ZM38.4923 35.3545L40.4021 29.6656H40.4423L42.3321 35.3545H38.4923ZM58.3748 41.7269V39.7368H51.7004L58.1134 28.8414V26.8513H49.5694V28.8414H55.6809L49.2276 39.7368V41.7269H58.3748ZM73.8044 41.7269L68.1552 26.8513H66.2052L60.556 41.7269H62.8479L64.4964 37.3446H69.8439L71.4924 41.7269H73.8044ZM65.2603 35.3545L67.1701 29.6656H67.2104L69.1001 35.3545H65.2603Z" stroke="#EE2922" stroke-width="0.266667"/>
<path d="M13.9244 18.2743V11.8416H19.272V9.85144H13.9244V5.38874H19.272V3.39862H11.7532V18.2743H13.9244ZM37.9427 10.8767C37.9427 6.63508 34.6256 3.11719 30.2017 3.11719C25.6594 3.11719 22.4629 6.7959 22.4629 10.8365C22.4629 14.3766 24.9434 17.584 28.5015 18.3716C29.624 18.3486 30.883 18.3571 32.0017 18.3486C35.4955 17.526 37.9427 14.3645 37.9427 10.8767ZM35.7716 10.8968C35.7716 13.2286 34.0415 16.5656 30.2017 16.5656C26.382 16.5656 24.6341 13.2688 24.6341 10.8365C24.6341 8.46439 26.363 5.10731 30.2017 5.10731C33.9019 5.10731 35.7716 8.26337 35.7716 10.8968ZM53.7398 18.2743V3.39862H51.5686V14.7162H51.5284L44.291 3.39862H41.9188V18.2743H44.09V6.7758H44.1302L51.4882 18.2743H53.7398ZM58.3815 18.2743H63.126C65.2167 18.2743 67.2271 17.8119 68.9359 16.1233C70.0416 15.0378 70.8056 12.8869 70.8056 10.8767C70.8056 9.4293 70.3432 7.62009 69.2777 6.13253C68.1519 4.58465 66.3023 3.39862 63.2064 3.39862H58.3815V18.2743ZM60.5527 5.38874H63.1863C67.2472 5.38874 68.6344 8.62521 68.6344 10.8767C68.6344 14.9775 65.7595 16.2842 63.1461 16.2842H60.5527V5.38874ZM86.1268 18.2743L80.4777 3.39862H78.5276L72.8785 18.2743H75.1703L76.8188 13.892H82.1664L83.8149 18.2743H86.1268ZM77.5827 11.9019L79.4926 6.21294H79.5328L81.4225 11.9019H77.5827ZM92.2841 18.2743V5.38874H95.1388V3.39862H87.2582V5.38874H90.1129V18.2743H92.2841ZM100.51 3.39862H98.3387V18.2743H100.51V3.39862ZM119.645 10.8767C119.645 6.63508 116.328 3.11719 111.904 3.11719C107.362 3.11719 104.165 6.7959 104.165 10.8365C104.165 14.9172 107.461 18.5557 111.904 18.5557C116.328 18.5557 119.645 14.9373 119.645 10.8767ZM117.474 10.8968C117.474 13.2286 115.744 16.5656 111.904 16.5656C108.084 16.5656 106.337 13.2688 106.337 10.8365C106.337 8.46439 108.065 5.10731 111.904 5.10731C115.604 5.10731 117.474 8.26337 117.474 10.8968ZM134.98 18.2743V3.39862H132.809V14.7162H132.768L125.531 3.39862H123.159V18.2743H125.33V6.7758H125.37L132.728 18.2743H134.98Z" fill="#EE2922"/>
<path d="M13.9244 18.2743V11.8416H19.272V9.85144H13.9244V5.38874H19.272V3.39862H11.7532V18.2743H13.9244ZM37.9427 10.8767C37.9427 6.63508 34.6256 3.11719 30.2017 3.11719C25.6594 3.11719 22.4629 6.7959 22.4629 10.8365C22.4629 14.3766 24.9434 17.584 28.5015 18.3716C29.624 18.3676 30.8829 18.3639 32.0017 18.3486C35.4955 17.526 37.9427 14.3645 37.9427 10.8767ZM35.7716 10.8968C35.7716 13.2286 34.0415 16.5656 30.2017 16.5656C26.382 16.5656 24.6341 13.2688 24.6341 10.8365C24.6341 8.46439 26.363 5.10731 30.2017 5.10731C33.9019 5.10731 35.7716 8.26337 35.7716 10.8968ZM53.7398 18.2743V3.39862H51.5686V14.7162H51.5284L44.291 3.39862H41.9188V18.2743H44.09V6.7758H44.1302L51.4882 18.2743H53.7398ZM58.3815 18.2743H63.126C65.2167 18.2743 67.2271 17.8119 68.9359 16.1233C70.0416 15.0378 70.8056 12.8869 70.8056 10.8767C70.8056 9.4293 70.3432 7.62009 69.2777 6.13253C68.1519 4.58465 66.3023 3.39862 63.2064 3.39862H58.3815V18.2743ZM60.5527 5.38874H63.1863C67.2472 5.38874 68.6344 8.62521 68.6344 10.8767C68.6344 14.9775 65.7595 16.2842 63.1461 16.2842H60.5527V5.38874ZM86.1268 18.2743L80.4777 3.39862H78.5276L72.8785 18.2743H75.1703L76.8188 13.892H82.1664L83.8149 18.2743H86.1268ZM77.5827 11.9019L79.4926 6.21294H79.5328L81.4225 11.9019H77.5827ZM92.2841 18.2743V5.38874H95.1388V3.39862H87.2582V5.38874H90.1129V18.2743H92.2841ZM100.51 3.39862H98.3387V18.2743H100.51V3.39862ZM119.645 10.8767C119.645 6.63508 116.328 3.11719 111.904 3.11719C107.362 3.11719 104.165 6.7959 104.165 10.8365C104.165 14.9172 107.461 18.5557 111.904 18.5557C116.328 18.5557 119.645 14.9373 119.645 10.8767ZM117.474 10.8968C117.474 13.2286 115.744 16.5656 111.904 16.5656C108.084 16.5656 106.337 13.2688 106.337 10.8365C106.337 8.46439 108.065 5.10731 111.904 5.10731C115.604 5.10731 117.474 8.26337 117.474 10.8968ZM134.98 18.2743V3.39862H132.809V14.7162H132.768L125.531 3.39862H123.159V18.2743H125.33V6.7758H125.37L132.728 18.2743H134.98Z" stroke="#EE2922" stroke-width="0.266667"/>
<path d="M-0.00109863 3.24923H144.999" stroke="#EE2922"/>
<path d="M-0.00109863 26.7492H144.999" stroke="#EE2922"/>
<path d="M-0.00109863 18.2492H144.999" stroke="#EE2922"/>
<path d="M-0.00109863 41.7492H144.999" stroke="#EE2922"/>
<path d="M58.2536 45V4.61309e-07" stroke="#EE2922"/>
<path d="M123.258 45V4.61309e-07" stroke="#EE2922"/>
</svg>
