<?xml version="1.0" encoding="UTF-8" standalone="no"?>
<!-- Created with Inkscape (http://www.inkscape.org/) -->

<svg
   width="189.99907mm"
   height="56.998306mm"
   viewBox="0 0 189.99907 56.998306"
   version="1.1"
   id="svg5"
   xml:space="preserve"
   inkscape:export-filename="bitmap.svg"
   inkscape:export-xdpi="64.620003"
   inkscape:export-ydpi="64.620003"
   xmlns:inkscape="http://www.inkscape.org/namespaces/inkscape"
   xmlns:sodipodi="http://sodipodi.sourceforge.net/DTD/sodipodi-0.dtd"
   xmlns="http://www.w3.org/2000/svg"
   xmlns:svg="http://www.w3.org/2000/svg"><sodipodi:namedview
     id="namedview7"
     pagecolor="#ffffff"
     bordercolor="#000000"
     borderopacity="0.25"
     inkscape:showpageshadow="2"
     inkscape:pageopacity="0.0"
     inkscape:pagecheckerboard="0"
     inkscape:deskcolor="#d1d1d1"
     inkscape:document-units="mm"
     showgrid="false" /><defs
     id="defs2"><clipPath
       clipPathUnits="userSpaceOnUse"
       id="clipPath150"><path
         d="m 1152.66,1285.36 c -126.33,0 -224.769,-44.57 -308.363,-131.84 -53.867,87.27 -142.969,131.84 -269.297,131.84 -74.258,0 -178.32,-44.57 -239.609,-131.84 v 109.57 H 8.51563 V 783.914 H 335.391 v 40.859 c 0,100.274 51.992,163.438 131.875,163.438 72.461,0 118.867,-61.289 118.867,-157.891 V 304.699 h 326.914 v 520.074 c 0,100.274 51.992,163.438 130.003,163.438 74.29,0 118.9,-61.289 118.9,-157.891 V 304.699 h 326.88 v 553.512 c 0,274.879 -124.45,427.149 -336.17,427.149 z"
         id="path148" /></clipPath><linearGradient
       x1="0"
       y1="0"
       x2="1"
       y2="0"
       gradientUnits="userSpaceOnUse"
       gradientTransform="matrix(1480.33,0,0,-1480.33,8.51563,304.7)"
       spreadMethod="pad"
       id="linearGradient160"><stop
         style="stop-opacity:1;stop-color:#00a650"
         offset="0"
         id="stop152" /><stop
         style="stop-opacity:1;stop-color:#00a650"
         offset="0.177527"
         id="stop154" /><stop
         style="stop-opacity:1;stop-color:#197167"
         offset="0.942912"
         id="stop156" /><stop
         style="stop-opacity:1;stop-color:#197167"
         offset="1"
         id="stop158" /></linearGradient><clipPath
       clipPathUnits="userSpaceOnUse"
       id="clipPath170"><path
         d="m 2133.79,988.211 c 111.44,0 195,-87.266 195.04,-204.297 h 330.62 c -0.04,286.056 -228.47,501.446 -525.66,501.446 -297.15,0 -523.71,-215.39 -523.75,-501.446 h 330.59 c 0.03,117.031 83.59,204.297 193.16,204.297 z"
         id="path168" /></clipPath><linearGradient
       x1="0"
       y1="0"
       x2="1"
       y2="0"
       gradientUnits="userSpaceOnUse"
       gradientTransform="matrix(1049.42,0,0,-1049.42,1610.04,783.914)"
       spreadMethod="pad"
       id="linearGradient180"><stop
         style="stop-opacity:1;stop-color:#00a650"
         offset="0"
         id="stop172" /><stop
         style="stop-opacity:1;stop-color:#00a650"
         offset="0.177527"
         id="stop174" /><stop
         style="stop-opacity:1;stop-color:#197167"
         offset="0.942912"
         id="stop176" /><stop
         style="stop-opacity:1;stop-color:#197167"
         offset="1"
         id="stop178" /></linearGradient><clipPath
       clipPathUnits="userSpaceOnUse"
       id="clipPath190"><path
         d="M 4448.98,454.77 V 984.148 H 4122.07 V 467.781 c 0,-102.152 -61.29,-169.019 -152.3,-169.019 -92.89,0 -152.35,66.867 -152.35,169.019 v 316.133 h 0.2 V 1612.27 H 3490.7 v -458.75 c -53.86,85.43 -144.88,131.84 -263.75,131.84 -256.32,0 -454.96,-209.88 -455,-501.446 h 330.59 c 0.04,117.031 83.59,204.297 193.16,204.297 111.14,0 194.5,-86.836 194.96,-203.398 h -0.15 V 454.77 c 0,-273.04 187.62,-451.32078 479.26,-451.32078 289.76,0 479.21,178.28078 479.21,451.32078 z"
         id="path188" /></clipPath><linearGradient
       x1="0"
       y1="0"
       x2="1"
       y2="0"
       gradientUnits="userSpaceOnUse"
       gradientTransform="matrix(1677.04,0,0,-1677.04,2771.95,3.45004)"
       spreadMethod="pad"
       id="linearGradient200"><stop
         style="stop-opacity:1;stop-color:#00a650"
         offset="0"
         id="stop192" /><stop
         style="stop-opacity:1;stop-color:#00a650"
         offset="0.177527"
         id="stop194" /><stop
         style="stop-opacity:1;stop-color:#197167"
         offset="0.942912"
         id="stop196" /><stop
         style="stop-opacity:1;stop-color:#197167"
         offset="1"
         id="stop198" /></linearGradient><clipPath
       clipPathUnits="userSpaceOnUse"
       id="clipPath210"><path
         d="m 5115.43,623.797 -137.42,29.726 c -38.99,7.383 -55.74,26.016 -55.74,48.282 0,29.726 33.47,52.031 83.59,52.031 91.02,0 226.6,-33.438 326.91,-98.438 v 261.875 c -76.13,53.829 -198.75,89.137 -330.62,89.137 -191.29,0 -403.05,-72.457 -403.05,-332.457 0,-124.453 68.71,-243.324 278.6,-282.344 l 105.89,-20.39 c 48.29,-9.297 63.17,-29.731 63.17,-52.028 0,-27.851 -35.31,-53.871 -91.02,-53.871 -98.47,0 -243.36,44.571 -365.9,131.91 V 118.602 c 53.83,-40.8637 185.71,-115.15278 365.9,-115.15278 273.05,0 421.6,111.44178 421.6,312.03078 0,141.168 -66.87,265.622 -261.91,308.317 z"
         id="path208" /></clipPath><linearGradient
       x1="0"
       y1="0"
       x2="1"
       y2="0"
       gradientUnits="userSpaceOnUse"
       gradientTransform="matrix(787.518,0,0,-787.518,4589.84,3.45004)"
       spreadMethod="pad"
       id="linearGradient220"><stop
         style="stop-opacity:1;stop-color:#00a650"
         offset="0"
         id="stop212" /><stop
         style="stop-opacity:1;stop-color:#00a650"
         offset="0.177527"
         id="stop214" /><stop
         style="stop-opacity:1;stop-color:#197167"
         offset="0.942912"
         id="stop216" /><stop
         style="stop-opacity:1;stop-color:#197167"
         offset="1"
         id="stop218" /></linearGradient></defs><g
     id="g142"
     transform="matrix(0.03527778,0,0,-0.03527778,-5.0620427e-6,56.998308)"><g
       id="g144"><g
         id="g146"
         clip-path="url(#clipPath150)"><path
           d="m 1152.66,1285.36 c -126.33,0 -224.769,-44.57 -308.363,-131.84 -53.867,87.27 -142.969,131.84 -269.297,131.84 -74.258,0 -178.32,-44.57 -239.609,-131.84 v 109.57 H 8.51563 V 783.914 H 335.391 v 40.859 c 0,100.274 51.992,163.438 131.875,163.438 72.461,0 118.867,-61.289 118.867,-157.891 V 304.699 h 326.914 v 520.074 c 0,100.274 51.992,163.438 130.003,163.438 74.29,0 118.9,-61.289 118.9,-157.891 V 304.699 h 326.88 v 553.512 c 0,274.879 -124.45,427.149 -336.17,427.149"
           style="fill:url(#linearGradient160);fill-opacity:1;fill-rule:nonzero;stroke:none"
           id="path162" /></g></g><g
       id="g164"><g
         id="g166"
         clip-path="url(#clipPath170)"><path
           d="m 2133.79,988.211 c 111.44,0 195,-87.266 195.04,-204.297 h 330.62 c -0.04,286.056 -228.47,501.446 -525.66,501.446 -297.15,0 -523.71,-215.39 -523.75,-501.446 h 330.59 c 0.03,117.031 83.59,204.297 193.16,204.297"
           style="fill:url(#linearGradient180);fill-opacity:1;fill-rule:nonzero;stroke:none"
           id="path182" /></g></g><g
       id="g184"><g
         id="g186"
         clip-path="url(#clipPath190)"><path
           d="M 4448.98,454.77 V 984.148 H 4122.07 V 467.781 c 0,-102.152 -61.29,-169.019 -152.3,-169.019 -92.89,0 -152.35,66.867 -152.35,169.019 v 316.133 h 0.2 V 1612.27 H 3490.7 v -458.75 c -53.86,85.43 -144.88,131.84 -263.75,131.84 -256.32,0 -454.96,-209.88 -455,-501.446 h 330.59 c 0.04,117.031 83.59,204.297 193.16,204.297 111.14,0 194.5,-86.836 194.96,-203.398 h -0.15 V 454.77 c 0,-273.04 187.62,-451.32078 479.26,-451.32078 289.76,0 479.21,178.28078 479.21,451.32078"
           style="fill:url(#linearGradient200);fill-opacity:1;fill-rule:nonzero;stroke:none"
           id="path202" /></g></g><g
       id="g204"><g
         id="g206"
         clip-path="url(#clipPath210)"><path
           d="m 5115.43,623.797 -137.42,29.726 c -38.99,7.383 -55.74,26.016 -55.74,48.282 0,29.726 33.47,52.031 83.59,52.031 91.02,0 226.6,-33.438 326.91,-98.438 v 261.875 c -76.13,53.829 -198.75,89.137 -330.62,89.137 -191.29,0 -403.05,-72.457 -403.05,-332.457 0,-124.453 68.71,-243.324 278.6,-282.344 l 105.89,-20.39 c 48.29,-9.297 63.17,-29.731 63.17,-52.028 0,-27.851 -35.31,-53.871 -91.02,-53.871 -98.47,0 -243.36,44.571 -365.9,131.91 V 118.602 c 53.83,-40.8637 185.71,-115.15278 365.9,-115.15278 273.05,0 421.6,111.44178 421.6,312.03078 0,141.168 -66.87,265.622 -261.91,308.317"
           style="fill:url(#linearGradient220);fill-opacity:1;fill-rule:nonzero;stroke:none"
           id="path222" /></g></g></g></svg>
